<svg width="250" height="250" viewBox="0 0 250 250" fill="none" xmlns="http://www.w3.org/2000/svg">
    <path
        d="M124.446 113.729C124.446 120.054 133.689 123.946 138.797 123.946C143.906 123.946 173.339 122.244 176.744 123.946C180.149 125.648 187.69 126.379 187.69 134.162C187.69 141.945 181.366 146.055 174.798 147.514C168.23 148.973 155.338 147.514 145.608 148.514C135.878 149.514 124.446 152.405 124.446 156.784"
        stroke="black" stroke-width="5" />
    <path
        d="M73.3639 100.594C55.3636 103.026 48.7959 103.756 48.7959 103.756C48.7959 103.756 44.904 176.487 48.7959 176.244C52.6879 176 65.0479 172.8 79.7949 170.766C94.542 168.732 106.26 176.796 122.511 174.58C138.762 172.364 166.528 149.486 172.366 151.919C178.204 154.351 180.879 131.729 180.879 131.729C180.879 131.729 195.392 98.5638 192.473 94.6716C189.554 90.7795 154.153 78.4617 134.419 80.8905C114.686 83.3192 91.3643 98.1611 73.3639 100.594Z"
        fill="white" stroke="black" stroke-width="5" />
    <path d="M15.2278 185.73V95.2423H54.8771V185.73H15.2278Z" fill="white" stroke="black"
        stroke-width="5" />
    <circle cx="195.109" cy="130.546" r="41.163" fill="white" stroke="black" stroke-width="5" />
    <path
        d="M195.399 157.244C194.809 157.244 194.318 157.048 193.924 156.654C193.57 156.261 193.393 155.789 193.393 155.238V149.338L194.455 150.341C191.702 150.302 189.185 149.928 186.903 149.22C184.622 148.473 182.695 147.529 181.121 146.388C180.689 146.074 180.374 145.7 180.177 145.267C180.02 144.795 179.981 144.343 180.059 143.91C180.177 143.478 180.374 143.104 180.649 142.789C180.964 142.475 181.338 142.298 181.77 142.258C182.203 142.18 182.695 142.317 183.245 142.671C184.543 143.576 186.117 144.363 187.965 145.031C189.814 145.7 192.115 146.034 194.868 146.034C197.15 146.034 199.018 145.739 200.473 145.149C201.929 144.559 203.01 143.733 203.718 142.671C204.426 141.609 204.78 140.37 204.78 138.954C204.78 137.853 204.525 136.889 204.013 136.063C203.502 135.237 202.696 134.529 201.594 133.939C200.493 133.349 199.018 132.858 197.169 132.464L191.269 131.225C187.69 130.439 185.035 129.16 183.304 127.39C181.574 125.581 180.708 123.221 180.708 120.31C180.708 118.029 181.259 116.003 182.36 114.233C183.501 112.424 185.074 111.008 187.08 109.985C189.086 108.923 191.427 108.333 194.101 108.215L193.393 109.041V103.259C193.393 102.709 193.57 102.237 193.924 101.843C194.318 101.45 194.809 101.253 195.399 101.253C195.95 101.253 196.422 101.45 196.815 101.843C197.209 102.237 197.405 102.709 197.405 103.259V109.041L196.638 108.215C198.487 108.255 200.434 108.648 202.479 109.395C204.564 110.143 206.334 111.205 207.789 112.581C208.183 112.935 208.419 113.329 208.497 113.761C208.615 114.155 208.596 114.548 208.438 114.941C208.32 115.295 208.104 115.61 207.789 115.885C207.514 116.121 207.14 116.259 206.668 116.298C206.236 116.298 205.764 116.121 205.252 115.767C203.954 114.705 202.499 113.899 200.886 113.348C199.313 112.758 197.405 112.463 195.163 112.463C192.213 112.463 189.853 113.171 188.083 114.587C186.353 116.003 185.487 117.872 185.487 120.192C185.487 122.002 186.038 123.457 187.139 124.558C188.241 125.62 190.03 126.407 192.508 126.918L198.467 128.216C202.322 129.042 205.154 130.301 206.963 131.992C208.773 133.644 209.677 135.886 209.677 138.718C209.677 140.96 209.107 142.927 207.966 144.618C206.826 146.27 205.272 147.588 203.305 148.571C201.339 149.515 199.057 150.086 196.461 150.282L197.405 149.279V155.238C197.405 155.789 197.209 156.261 196.815 156.654C196.461 157.048 195.989 157.244 195.399 157.244Z"
        fill="black" />
    <path
        d="M191.366 119.629L147.734 120.799V144.534C147.734 144.534 185.425 143.177 187.457 141.465C189.489 139.754 191.366 119.629 191.366 119.629Z"
        fill="white" />
    <path
        d="M128.122 109.786C128.122 116.11 137.365 120.002 142.473 120.002C147.581 120.002 173.285 119.051 180.28 120.002C187.276 120.953 191.366 122.435 191.366 130.218C191.366 138.001 185.042 142.111 178.474 143.57C171.906 145.029 159.014 143.57 149.284 144.57C139.554 145.57 131.012 148.791 128.122 152.841"
        stroke="black" stroke-width="5" stroke-linecap="round" />
    <path
        d="M174.877 136.298C175.593 136.714 176.511 136.471 176.928 135.755C177.345 135.039 177.102 134.121 176.386 133.705L174.877 136.298ZM173.321 120.493C171.879 120.082 171.878 120.083 171.878 120.083C171.878 120.083 171.878 120.084 171.878 120.084C171.878 120.085 171.878 120.086 171.877 120.087C171.877 120.09 171.876 120.093 171.875 120.097C171.872 120.104 171.87 120.114 171.866 120.127C171.859 120.153 171.849 120.189 171.837 120.235C171.812 120.328 171.778 120.46 171.737 120.628C171.655 120.963 171.545 121.441 171.432 122.022C171.208 123.18 170.965 124.774 170.905 126.489C170.845 128.191 170.962 130.093 171.508 131.828C172.059 133.578 173.08 135.252 174.877 136.298L176.386 133.705C175.419 133.142 174.77 132.199 174.37 130.927C173.965 129.641 173.849 128.116 173.903 126.594C173.956 125.084 174.172 123.654 174.377 122.594C174.48 122.066 174.579 121.636 174.651 121.342C174.687 121.194 174.716 121.081 174.736 121.007C174.746 120.969 174.753 120.942 174.758 120.924C174.761 120.916 174.762 120.91 174.763 120.906C174.764 120.905 174.764 120.904 174.764 120.903C174.764 120.903 174.764 120.903 174.764 120.903C174.764 120.903 174.764 120.904 174.764 120.904C174.764 120.904 174.764 120.904 173.321 120.493Z"
        fill="black" />
</svg>